<svg id="Layer_1" data-name="Layer 1" xmlns="http://www.w3.org/2000/svg" viewBox="0 0 1000 1000"><defs><style>.cls-1,.cls-4,.cls-6{stroke:#000;stroke-width:5.78px;}.cls-1,.cls-2,.cls-3{fill-rule:evenodd;}.cls-2{fill:#fff;}.cls-4,.cls-5,.cls-6,.cls-7{fill:none;}.cls-4,.cls-5{stroke-miterlimit:2.41;}.cls-5,.cls-7{stroke:#fff;}.cls-5{stroke-width:2.89px;}.cls-7{stroke-miterlimit:2.61;stroke-width:8px;}</style></defs><title>Artboard 11-black-svg</title><g id="WWTC"><path class="cls-1" d="M59.42,15.51s4-6,4.93-5.07C76.61,22.73,169.82,31.06,169.82,31.06v66l95.61.76V42.45l94.48,5.69V97.45H457V50h92.59V97.84h97.13V47.75s89.53-6.45,93.34-6.45V97.84h97.11V29.92s89.92-8.73,96-19.35l4.17,4.18s-14,43.25-8.73,71.32,8.16,38.52,13.84,49.71,10.25,18.78,10.25,18.78-22,17.65-29.59,29.79-22.56,36.41-29.41,59.75-11.75,41-15,62.8-7.21,54.06-7.21,85.93,2.27,74.94,6.83,93.53,13.48,50.08,16.69,58.24,23,48.38,36,63.74,15.19,16.71,19.37,20.86S964.87,640,964.87,640s-14.4,24.66-30,43.07-28.26,33.57-34.72,40-37.17,36.8-45.33,43.26-42.87,33-51.78,38.7S764.35,829.92,752,835.42s-63.55,31.3-74.74,36.23-42.68,21.44-50.84,25-34.9,18.78-43.63,23.34-38.13,22.77-45.91,30.53S521,964.43,515.84,971.24s-10.42,18.41-10.42,18.41h-6.07s-5.9-16.88-18.61-27.7-30.92-24.47-45.14-32.63S371.27,894,354.21,886.27s-53.88-25.63-53.88-25.63-46.29-22.19-53.5-25.8-51.21-30.54-56.34-33.77-48.65-35.74-62.23-49.32-40-39.07-49.5-51.22-29-36.23-33.2-42.87-10.43-17.07-10.43-17.07,26.17-18.78,40.4-41.18S104,549,110.06,528.46s12.9-49.12,15-73.21,2.66-77.79,1.71-93.91S119,285.27,109.48,256.42s-18.39-52.16-31.67-69.8-18.22-21.44-21.25-24.47-9.67-6.82-9.67-6.82a115.56,115.56,0,0,0,10-19C61.3,125.73,71.17,106,71.17,84.94s.39-32.07-2.46-45.53a83.57,83.57,0,0,0-9.29-23.9Z"/><path class="cls-2" d="M103.12,233.24c-7.81-20.9-15.24-35.45-23.93-47C67.73,171,62.35,165.88,59.12,162.84l-1.43-1.4A48.61,48.61,0,0,0,50,155.73a121.34,121.34,0,0,0,8.69-16.94l2-4.63c5-11.54,12.48-29,12.48-47.86V79.63c0-17,.06-27.21-2.54-39.46A87.41,87.41,0,0,0,61.92,17a21.11,21.11,0,0,1,1.34-1.7c16.35,11,86.2,18.15,102.73,19.73V101.3l2.86,0,95.62.76,2.91,0V46.88l88.71,5.33V101.7H459V54.26h86.8v47.82h102.9V51.8c23.67-1.69,74.69-5.35,87.57-6.11v56.39h102.9V33.86c22-2.2,79.08-8.69,93-18l1,1c-2.55,8.4-13.13,45.41-8.29,71,5.48,28.78,8.37,39.18,14.12,50.5,3.9,7.69,7.32,13.76,9.08,16.79-5.61,4.66-21.78,18.56-28.3,29-5.4,8.65-17.88,28.56-25.8,49l-790.83,0Z"/><path class="cls-2" d="M66.9,20.45a88.23,88.23,0,0,1,6.53,19.12c2.66,12.56,2.63,22.91,2.6,40.06V86.3c0,19.45-7.66,37.25-12.72,49-.72,1.67-1.38,3.2-1.94,4.58a121.22,121.22,0,0,1-7.45,14.93,41.35,41.35,0,0,1,5.81,4.58l1.4,1.35c3.29,3.12,8.79,8.34,20.38,23.73,8.63,11.47,16,25.72,23.6,45.85H892c8-20,19.58-38.51,25.33-47.7,6.1-9.74,20.21-22.26,27.05-28.06-1.9-3.36-4.74-8.51-7.94-14.82-5.93-11.64-8.88-22.18-14.38-51.25-4.34-23,3.29-54.55,7-67.89-17.78,7.72-58.56,13-87,15.89V105H733.37V48.76c-14.52.93-52.74,3.64-81.78,5.72V105H542.89V57.17h-81v47.42H353.2V54.93l-82.92-5V105l-5.83-.05-95.61-.74-5.73,0V37.68c-20.43-2-74.37-7.88-96.21-17.23ZM66,16.59h0ZM63.19,11.7a.32.32,0,0,1,.23.09C75.68,24.07,168.89,32.41,168.89,32.41v66l95.61.75V43.8L359,49.49V98.8h97.11V51.38h92.58v47.8h97.14V49.1s89.52-6.45,93.34-6.45V99.18h97.12V31.26s89.91-8.72,96-19.34l4.16,4.17s-14,43.25-8.72,71.34,8.15,38.51,13.85,49.7,10.25,18.77,10.25,18.77-22,17.66-29.61,29.79c-6.57,10.53-18.7,30.17-26.26,50.42H101.08C94.08,217,86.65,201,76.88,188c-13.28-17.63-18.22-21.43-21.26-24.47S46,156.67,46,156.67a115.7,115.7,0,0,0,10-19c4.36-10.62,14.23-30.35,14.23-51.4s.38-32.07-2.46-45.54a83.27,83.27,0,0,0-9.3-23.89S62,11.7,63.19,11.7Z"/><path class="cls-3" d="M745.69,185.87V216H626.62V185.87H714.4s.61-26.52-6.15-31.54c-10.43-5.74-26.38-4.3-26.38-4.3H626.62V119.92h73.06s9.2,0,16.56,3.58c17.81,7.17,14.13,43.73,13.5,62.37h16Z"/><path class="cls-3" d="M300.1,119.92V150h14.72c0,10.75.63,30.11-2.45,33.7-3.07,2.86-12.27,2.14-12.27,2.14H289.67V216h19s10.44-1.44,13.51-5c3.67-3.59,4.29-10,4.29-15.77h0V150h52.17s6.13,0,11.66,5.74c8,7.88,5.53,60.22,5.53,60.22H407.5c1.23-25.81,3.08-75.29-8.58-88.19-6.14-6.45-13.51-7.88-22.72-7.88H300.1Z"/><path class="cls-3" d="M203.12,150s6.14,0,11.66,5.74c8,7.88,4.92,60.22,4.92,60.22H232c1.22-25.81,3.07-75.29-8.59-88.19-6.14-6.45-14.12-7.88-22.71-7.88H124.56V150Z"/><polygon class="cls-3" points="124.56 170.82 140.51 170.82 140.51 215.99 124.56 215.99 124.56 170.82 124.56 170.82"/><polygon class="cls-3" points="102.46 119.92 112.89 119.92 112.89 150.03 102.46 150.03 102.46 119.92 102.46 119.92"/><path class="cls-3" d="M433.9,150s16.57-.72,18.41,6.45c3.69,15.77.62,59.51.62,59.51h12.88c1.84-20.79,4.92-76-4.29-88.9-6.75-8.61-20.87-7.17-30.7-7.17h-8V150Z"/><path class="cls-3" d="M539.47,180.85l-23.94-19.36c-3.68,6.46-8,16.5-4.91,20.8,2.47,2.86,11,3.58,11,3.58h11.06V216h-9.81c-9.22,0-20.87,1.43-28.85-5.74-9.83-8.6-3.08-29.4,11.67-55.2a26.35,26.35,0,0,0-16.59-5h0v-29.4c5.53,0,17.81-3.58,43,16.49h0l22.72,17.93,23.92,19.36c3.69-6.46,8-16.5,4.93-20.8-2.45-2.87-11-3.58-11-3.58h-11V119.92h9.82c9.2,0,20.87-1.44,28.84,5.73,9.84,8.6,3.07,29.4-11.65,55.2,7.37,5,12.28,5,16.55,5h0v29.41c-5.49,0-17.78,3.58-42.94-16.5h0l-22.72-17.93Z"/><path class="cls-3" d="M851.88,173.69l33.77,11.46V216H761V185.87h84.1l-43-15.77c-.6-7.17-1.84-11.47-4.92-15-3-5-10.43-5-10.43-5H761V119.92h20.88c9.82,0,19-1.44,27,5.73,5.52,5,6.74,19.36,3.69,33.7h0l25.15,8.6c9.82-4.3,19-10,16.57-14.34-1.84-3.58-6.75-3.58-6.75-3.58H832.23V119.92H852.5c9.83,0,24.55.71,29.45,10,7.38,13.62,6.14,28-30.07,43.74Z"/><path class="cls-2" d="M768.47,826.69c-.26-1-.23-.9-.51-2C753.82,769.29,740.22,716,725.35,657.5l-4.2-.66-4.69-.68L714,650.82l-4.77-.88-1.44-4.15-6.26-1c-1.92-1.32-.89-4-2.82-5.38a338,338,0,0,0-53-8.83,170.83,170.83,0,0,1-141.46,75.27c-58.43,0-110.17-29.67-141-74.62a225.5,225.5,0,0,0-51.17,12l-1.06,4.3-5.31.39-2.18,4.48-6.06.71-1.5,7.06-5.55.15-4,2.82C272.46,722,258.82,778.48,245,836l106.51,47.57c47.68-8.9,92.36-12.14,133.44-6.62,59.29-8.2,116-5.74,171.34,2.93.39.06,2.72.52,6.5,1.29,2.15.44-.52-4.4,2.5-3.77,35.91-13.15,65.67-31.86,103.15-50.67Z"/><path class="cls-2" d="M771.2,827.72c3.62-7.88-113.78,52.53-105.88,49.64L771.2,827.72Z"/><path class="cls-4" d="M487.84,868.36l10.44-163.17M309.23,865c56.36-23.1,123.81-48.7,180.5-8.9M311.13,647,266.88,844.57m432.47,17.09c-64.23-22.9-147.84-48.47-204.85-8.46m206.12-210L745,841.2M324,872c48.6-15.75,103.81-26.55,160.07-6.49M295,658.43l-40.77,180m423.08,33.2C615.66,857,553.72,847.73,490.7,867.4M716.8,654.65,759,830.45"/><path class="cls-3" d="M687.3,536.83A184.08,184.08,0,0,1,503.21,720.92c-101.68,0-184.1-82.42-184.1-184.09S401.53,352.7,503.21,352.7,687.3,435.11,687.3,536.83Z"/><path class="cls-5" d="M504,354.62c101.55,0,183.87,82.33,183.87,183.87S605.56,722.43,504,722.43,320.14,640.07,320.14,538.49,402.47,354.62,504,354.62Zm2,.06,1.56,366.67M506,354.68C456.44,438,464.7,705.24,507.55,721.35M495,354.68c-76.35,80.43-64.65,347.45,1.56,366.67m-13.3-365.89c-105.82,80.26-89.44,346.84,1.56,365.89m-14.1-363.56C341.23,435.55,357.07,698.89,472.31,719M456.44,360.25C317,437.15,334.64,695.19,458,715.06M441.18,366.57c-134.49,73.94-117.45,322.91,1.5,342.14m-6.8-342.14c-62,36.05-100.8,105.24-103.27,174.15-2.87,80.6,48.22,155.92,104.8,168M509.59,356c49.56,83,41.28,349.38-1.57,365.4M520.56,356c76.35,80.17,64.68,346.23-1.56,365.4m13.31-364.62c105.83,80,89.43,345.63-1.57,364.62m14.1-362.27C674.35,436.55,658.5,699,543.29,719m15.86-355.75c139.46,75.76,121.77,330-1.58,349.55m16.81-345c134.52,72.75,117.46,317.74-1.47,336.66m6.75-335c62,35.11,100.79,102.57,103.29,169.78,2.87,78.58-48.21,152-104.78,163.68M321.51,504.46c82.9,49.58,348.11,42.07,364.08-.78M332,476.93c84.27,39.3,295.06,35.32,344.54,3.39M344.08,448.81c84.66,31.61,259.64,29.37,321.12,4.16m-302-29.59c82.26,23,219.85,21.8,286.05,3.33M384.6,399.94c74.42,15.66,179.19,15.4,243.88,3M407.81,380.83c62.79,9.78,139.59,10.05,196.72,2.66M441.69,365.54a788.07,788.07,0,0,0,133.09,1.34M321.24,535.7c58.22,30.65,137.41,37.87,184.57,37.54,55.57-.33,154-8.54,182.66-31m-367.23,28C379.46,601,458.65,608.2,505.81,607.87c55.57-.39,149.53-8.55,178.15-30.91M335.25,611.68c56.39,25,127.09,31.14,170.56,30.85,47.76-.33,123.8-6.4,162.48-22.4M354.2,644.81c52.57,18.73,114.39,24.32,153.12,24,40.26-.23,99.25-5.41,140.35-16.33M375.72,670.17c47.31,14,97,19.24,130.83,19,33.35-.23,79.78-4.63,118.43-12.59M400.24,690.88c39.39,9.24,78.27,12.82,106.31,12.62,26.07-.18,60.11-2.85,92.16-7.84M433.12,707.94a460.54,460.54,0,0,0,73.43,6.11,643.36,643.36,0,0,0,65.68-4.38"/><path class="cls-2" d="M349.71,523l7.48,5.23V532a66,66,0,0,1,6,7.46l4.49,7.47s.73,3-3,8.26l-1.49,5.94-1.49,6.71v6l.74,6.74,2.24,6.71,2.25,5.21,3,6s.77,3,4.5,8.22l3,4.51L379.6,615l2.26,3.7,3.74,5.24s0,.77,1.49,4.51,3,4.47,3,4.47a62.71,62.71,0,0,0,3,8.24c2.25,5.23,0,0,2.25,4.49s0,0,1.5,6,0,3,3,6.74,1.49,2.2,3,6a33.82,33.82,0,0,0,3.74,6.71l4.5,4.48s0,.74,3.72,3,.76.73,5.23,3.72,1.5.76,5.23,3.75a45.84,45.84,0,0,0,6.72,4.49l4.5-1.53V683l.75-6.75s-3.37,1.87-7.48-2.26l-6-6-3-3.71-3-7.5a44.14,44.14,0,0,0-.74-7.48,7.89,7.89,0,0,0-3.74-5.24s-2.23-1.51,2.25-6,.74-3.72.74-3.72,3.73-5.22,4.48-9.72,0-1.49,0-6-.75-4.45-.75-4.45a69.54,69.54,0,0,0,4.49-6c3.73-5.2,0,0,3-8.19s0-2.26,0-6.7,0-3,.75-6.78,0-.71,2.26-5.21,0-1.51,0-7.49-7.48-8.2-7.48-8.2l-10.47-4.51-3.73-5.21-2.25-6.77L405,543.93l-1.5-5.23-8.23-4.48-6.73-3.74-10.46.77L373.63,535h-6l-1.5-6v-5.24L362.42,520a55.16,55.16,0,0,1-.74-9.71c0-6-2.26-.74-2.26-4.49v-7.46c0-4.48,1.5-6,1.5-6l4.49-3.72,4.48-5.23,4.5,4.49v6c0,3.75-.76,2.22-1.51,9s0,.73,4.48,0,3.75-5.23,3.75-5.23l2.23-6.75a27.06,27.06,0,0,1,2.26-9.7c2.24-5.24,1.49-1.51,5.22-4.47s2.23-1.51,6-4.5,1.49-.75,11.2-6.73l6-3,3.74,1.49a46.68,46.68,0,0,0,6.73-.74c4.48-.75,0-.75,3.73-6s1.5.74,5.23,1.48a12.49,12.49,0,0,0,6,0l3-6,3-6.77a31.28,31.28,0,0,0,.73-6.69c0-3.75-.73-4.46-.73-4.46l-3.74-4.51-5.24.73a18.38,18.38,0,0,1-6,2.27,35,35,0,0,1-4.5.73v-5.23s0-.75,9.72-6,6-.74,6-.74l6,3,4.5-.74,6-.75s2.25-6.75,3-10.46v-8.23l-6,2.25-4.49,3.72-3.73-4.48-4.48-9-6-6.72h-5.25L417,392.2s-7.48.76-12,1.5-6.74,0-11.21.75-5.25,3-5.25,3-11.72,8-6.71,8.23l17.93.74-4.49,3.73-5.23.75-6,.77-5.24,3s.74,5.23-3.74,6-2.24,5.23-2.24,5.23l-5.22,5.22-6.74,4.49L355,440l-1.49,6-2.25,4.52L349,458l-4.5,6.72c-3,4.49-.75,1.52-2.25,5.23a18.08,18.08,0,0,0-1.48,6,20.68,20.68,0,0,0-.75,6v12.69a78.28,78.28,0,0,0,.75,8.25c.75,6,0,3,1.48,8.21s2.25,5.21,2.25,5.21l5.23,6.76Z"/><path class="cls-2" d="M481.25,409.39A55.13,55.13,0,0,0,494,413.14c6,.74,0,0,7.48,3s0,.75.73,4.49-.73,1.47-1.48,5.23a7.75,7.75,0,0,1-3.75,5.22s-1.51,2.27-7.48,3.75-3,.74-8.23,3-6,.75-6,.75c-2,1.25-4,2.48-6,3.73,0,0-2.24.74-6,5.24-.51,1.49-3.24.73-3.73,2.23-3.24-1.72-4.24-1.22-7.47-3a31.23,31.23,0,0,0,.74-6.75c0-3.72,3,.65,6-3,2.5-3,5-6,7.49-9,.25-1.25.49-2.51.74-3.73l3.75-3h4.46c4.5,0,.77-.73,0-5.22-.72-1.24-1.48-2.49-2.23-3.76l1.51-6s2.23-.76,6.7,3Z"/><path class="cls-2" d="M633,535s-1.43-2.23,2.27,5.2l3,6s0,5.22-3.71,3L630,547.66l-.73,4.5s2.25,3.75,5.22,9.7,0,0,1.51,6l1.47,5.23,7.46,13.47s5.23,2.89,5.23-1.48v-7.48a46.76,46.76,0,0,0-3.71-7.49v-5.19l2.24-4.52,1.47-6,1.5-3.75-.75-5.21-.75-5.27.75-4.45s-.75-4.47-1.47-8.25a33.68,33.68,0,0,1-.75-6l3.72-3a55.59,55.59,0,0,1,5.26,8.93c1.46,3.78,1.46,4.52,1.46,4.52v9.72l4.48-1.54v4.51l3.76,1.48,4.5-.72-.77-5.27-.74-5.95s-2.25-4.49-4.5-8.23a70,70,0,0,1-4.43-9.74l-8.24-7.47v-8.19c0-4.52,5.94,0,2.21-10.49s-3.74-7.47-3.74-7.47l3.74-5.22v-6.73a21.3,21.3,0,0,0-.73-6L650.17,455l-3.71-4.5-3-4.52-3.73-4.48-4.5-5.21-4.47-9.69-5.24-6-6-3-3.7.74s-6.73.75-10.45,0-.77,0-3.76-3.74,0-3,0-7.46a22.9,22.9,0,0,1,.77-6.73l-3-5.25-5.24-3-6.72.76-9,2.22s-3.74,1.52-8.23,3-3.75,3.73-3.75,3.73l-6.7.76s0,.74-5.23,6.71-2.26,3.75-2.26,3.75l-4.47-5.23s-.74.74-6.73,7.45h-6l-4.47,3h-5.26l-4.46-3h-4.5l-3.73,3a43.31,43.31,0,0,1,.75,7.48v5.22l3.74,4.49,9.69,6L524.61,446v3.75s-1.49-1.47-5.23-.74l-5.22.74-4.49-2.23-6-1.52-4.46,3-3.75,4.48a26.92,26.92,0,0,0-.74,7.47,8.85,8.85,0,0,1-3.75,7.49s-3,.75-6.72-2.26,5.91-11.44,0-8.2L476,462.45l-1.49,6.74,1.49,3.74,2.22,3.75-.73,4.47s-1.49,2.25-6,3.73l-4.49,3s-.74.74-.74,6.7l6,3.75,4.48-.73s.75,0,9-6l2.24-3.74a42.5,42.5,0,0,1,.77,7.47c0,3.73.73,5.24.73,5.24s3,1.49,4.5-2.26l1.49-6.71,3.75-3.74,2.24,6-3,9,6-1.49,5.24-6s3,7.48,3.73,3.73,1.5-3.73,7.48-7.46l3,4.45s0,.76,3.75,2.26,2.22,4.5,2.22,4.5l-4.5,1.48-5.2-.75-7.49,6,1.51,3.78,3,3.71,8.2,2.25,4.5.71,11.22.79,7.57-1.5s8.64-2.86,9.71,3.1L559,526l3,12.71,9.71-6.71a22.75,22.75,0,0,1,5.95-5.24l1.52-4.51v-7.47s.76-2.23,4.48-4.49l3.76,3,3.75,6s0,.71.73,7.47.72.72,6,5.24l4.5,12.69a31.51,31.51,0,0,0,.75,5.24c13.14,5.1,10.56-4.54,9.72-9.75l-1.53-8.92s1.53-3.78,3-7.51a18,18,0,0,0,1.49-6l4.46-4.46L624,517l.73,3.75S630,531.25,633,535Z"/><path class="cls-2" d="M620.27,664.29,624,662l6-3.72,6.7-5.23,5.26-3.77,3-9,3-6.75,3-6.7.75-8.95s-3.47-.52-4.48-7.52L645.69,600,642,601.48s-3.76,2.26-9,5.22l-5.18,3A50.92,50.92,0,0,0,621,612c-3.72,1.49-3,.75-6.72,3a9.67,9.67,0,0,1-6.77,1.48l-3.7,5.21-1.48,4.51-5.25,3-3,4.44v8.25c0,5.21,3.73,1.52,3.73,1.52s3.73-.78,9-2.26,1.49,3.7,1.49,3.7,0,2.25-2.95,7.52-3.76,1.47-3.76,5.21v6.75a19,19,0,0,0,6.71,2.23c4.53.75,6.74-.76,6.74-.76l5.22-1.47Z"/><path class="cls-2" d="M586.09,684.6c1.51.78,3.52-.17,5.08.58s2.57.89,5.19,0c0,0,.76-1.45,6-2.21s3,.76,6.71-1.53a46,46,0,0,1,6.43-3.24q2-2.48,4-4.94c-2.58-.52-3.54,4.58-10.88.88-.82-.88,2.28-2.11-4.78-2.38-4.24-2.12-4.24.59-6.26,3.42-5.25,2.23-2,2.52-6.42,1s-5.29.74-5.29.74c-.73,1.77-1.49,3.5-2.22,5.25,1.26,1,1.19,1.4,2.43,2.39Z"/><path class="cls-2" d="M654.61,609.82a6.32,6.32,0,0,0,5.25-2c2.39-2.39,2.86-1.88,4.27-4.74s2.37-3.34,2.86-5.75,2.84-2.35,3.85-5.23.44-2.87,1.88-5.77,2.37-2.36,2.86-5.2-1.42.93-1-4.27,3.83-4.82.47-7.68-1.91-.49-3.81-2.87a8.42,8.42,0,0,1-1.89-4.78l-.93-2.39c-3.34-2.35-5.24-3.8-5.24-3.8l-2.41-2.88-3.32.5s-3.32,2.38-4.28,4.74-1.44,1.94-2.41,4.79-1.41,3.82,0,6.69S657,574,657,574l4.73,1s1.48-1.42,5.25,0,4.29,3.36,4.29,3.36l-1.45,2.38A6.18,6.18,0,0,0,669,585l-2.46,3.81a13.13,13.13,0,0,0-1.38,3.82,34.34,34.34,0,0,1-1,3.83l-1.88,2.81-2.84,2c-3.36,2.37-5.74,4.26-5.74,4.26l.94,4.34Z"/><path class="cls-2" d="M513.4,514.77l-7.47-4.49-3.73-3-6.73-3.76-5.23-2.22s-.76-.75-4.5-.75a23.26,23.26,0,0,0-7.48,1.49s.76-.74-6,1.48-6.72,2.23-10.47,4.5a108.45,108.45,0,0,1-11.22,5.21L443.9,517a17.74,17.74,0,0,0-2.24,8.24v7.47c0,4.43,1.49,3,2.24,7.43s3.72,9.75,3.72,9.75-3-5.24,6.72,4.48,10.48,6.72,12,12,1.49,3,2.24,6.7,1.49,4.52.74,8.26-.74,0-.74,6-.75,5.25,2.24,11.2,2.24,5.26,5.24,9.72,3.73,6,8.21,9.75,5.23,5.94,12.71,2.18,14.94-6.67,14.94-6.67,3-.74,4.48-6.76,3-4.45,3-9.68.76-6,.76-12.69a84.76,84.76,0,0,0-.76-14.25,54.06,54.06,0,0,1-.73-10.46c0-5.22-4.49-3,.73-9.7s4.49-3,6-11.94,1.49-12,1.49-12l-1.49-4.45-11.94-6.77Z"/><path class="cls-2" d="M595.62,666.62l-2.39.94-3.29-1.42-3.37-1.95c-2.85-3.79-2.85-5.22-2.85-5.22l.93-3.35,3.82-2.85,2.82.94,2.87,2.39a11.84,11.84,0,0,1,1.46,4.3,24.69,24.69,0,0,1,0,6.22Z"/><path class="cls-2" d="M244.21,504.7l1-11.56,43.58,2.6c13.78.54,21.15,14.24,11.8,25.37,6.1,8.9,3.73,24.53-14.6,24.11l-43.59-2.3.18-11.82,45.3,3.08c8.91-.63,6.66-7.49-.17-7.83l-44.42-2.53.75-11.55,45.53,2.47c6.44-.07,7.51-6,.16-7.32,0,0-44.7-2.47-45.54-2.72Z"/><path class="cls-2" d="M269.77,475c-5-2.65-3.87-7,2-6.2,7.39.89,20,4.13,26.18,7,4.86,2.14,6.17,6.32-1.37,6.35-5.45-.43-21.5-4.12-26.83-7.11Zm-7.84,6.32c-10-8.57-2.58-21,6.33-21.92,11.26-1.74,30,3.52,38.7,10.14,6.88,6.42,4.27,19.75-6.59,22.22-7.88,1.82-33.81-4.62-38.44-10.44Z"/><path class="cls-2" d="M279,435.22c5.95,2.74,11.86,4.94,17.81,7.68-.85-3.49-3.92-6.6-7.55-9.38-4.68-2.06-7.82-1.41-10.26,1.7Zm-12.27,6c16.47,7.2,32.66,14.4,49.12,21.61,1.43-3.16,2.84-6.31,4.25-9.48-4.6-2-9.2-3.94-13.79-5.95,5.24-1.18,10.57-1.2,16,1.36,1.32-3.29,2.64-6.52,3.94-9.76-6.11-2.67-13.06-4.61-21.4-1.89-1.44-5.91-5.36-10.81-13.39-13.8-15.08-5.36-20.61,7.12-24.76,17.91Z"/><polygon class="cls-2" points="283.19 406.13 288.86 397.12 326.89 420.75 332.56 412.03 340.11 416.65 329.05 434.35 283.19 406.13 283.19 406.13"/><path class="cls-2" d="M314.62,377.21l27.55,23c2.14-3.81.4-4.67-2.85-8.63a61.13,61.13,0,0,0-14.9-13.34c-5.31-3.37-7.76-3.78-9.8-1.05ZM301,379.35q20.58,17,41.15,34.08c11.16-11.09,11.57-18.76,7.55-25.07-6.21-9.08-13.1-15.34-22.12-19.76-12.07-6-19.74.2-26.58,10.75Z"/><path class="cls-2" d="M369.85,308l9.83-6.14,24.21,36.31c7.87,11.33,1.39,25.45-13.16,24.73-3.39,10.21-17.31,17.75-28,2.84L338.3,329.66l9.51-7,24.86,38c5.86,6.75,10,.8,6.15-4.88l-24.75-37,9.65-6.35,25.47,37.82c4,5.08,9.33,2.37,5.93-4.28,0,0-24.94-37.17-25.27-38Z"/><path class="cls-2" d="M428.11,298.83,439,333c3.82-2.06,2.82-3.74,2.22-8.8-1.2-8.61-2.55-12.86-5.44-19.26-2.66-5.69-4.49-7.37-7.69-6.14ZM415.5,293.3q8.21,25.44,16.39,50.87c15.37-3.36,19.84-9.62,19.84-17.08-.35-11-2.8-20-8-28.58-7-11.53-16.79-10.4-28.19-5.21Z"/><polygon class="cls-2" points="747.34 450.69 750.35 460.91 707.42 473.72 710.2 483.76 701.78 486.34 695.79 466.32 747.34 450.69 747.34 450.69"/><polygon class="cls-2" points="394.19 303.06 403.5 298.56 425.71 347.28 416.05 351.47 394.19 303.06 394.19 303.06"/><polygon class="cls-2" points="604.35 297.66 613.86 301.65 592.08 350.58 582.56 346.11 604.35 297.66 604.35 297.66"/><polygon class="cls-2" points="672.58 340.65 680.41 347.4 644.64 387.24 636.91 380.06 672.58 340.65 672.58 340.65"/><polygon class="cls-2" points="648.94 321.87 657.43 328.24 630.85 364.23 639.07 370.6 633.88 377.74 617.1 365.31 648.94 321.87 648.94 321.87"/><polygon class="cls-2" points="621.98 305.59 631.23 310.86 609.24 349.88 618.2 355.15 613.88 362.9 595.74 352.61 621.98 305.59 621.98 305.59"/><path class="cls-2" d="M656.54,399.09l-6.37-7.94,30.91-24.37c9.27-8,23.14-1.11,22.74,10.38,9.64,2.67,16.45,14.72,4.33,25l-30.06,24.18L671,418l30.93-24c6.88-5.73,1.92-10.36-3.85-5.65L667.2,412.94l-6.55-8.61,30-23.5c7.16-5.11,1.79-10.13-4.37-4.85,0,0-29.26,23.8-29.78,23.11Z"/><path class="cls-2" d="M476.8,287.79,475.45,279c-3.25.69-6.52,1.14-9.78,1.8-7.74,1.5-10.62,7.78-9.75,13.22l2.84,16.71-2.94.37,1.31,8.36,2.92-.37c1.67,14,8,15.32,15.74,14.1l8.55-1.12-1.56-8.77-5.2.71c-4,.71-6,0-6.7-3.19-.21-1.21-.41-2.18-.6-3.35l9.17-1.35-1.55-8.58-8.75,1.33-2.49-14.39c-.83-3.55.54-5.31,4.32-5.73l5.82-1Z"/><path class="cls-2" d="M553.55,290.71l1.48-8.77c-3.29-.37-6.54-.95-9.84-1.35-7.83-1-12.52,4-13.42,9.46l-2.54,16.78-2.91-.58-1.41,8.34,2.92.57c-2.83,13.82,2.76,17.06,10.5,18.33l8.46,1.64,1.28-8.84-5.18-.94c-4-.59-5.71-1.92-5.34-5.14.17-1.2.33-2.18.5-3.38l9.12,1.59,1.25-8.61-8.77-1.49,2.17-14.48c.35-3.6,2.22-4.84,5.91-4.06l5.82.93Z"/><path class="cls-2" d="M501.2,280.33l.29-9.52,29.73,1.06-.53,9.74-9.24-.55-1.82,50.52-11.82-.81,2.25-49.9s-8.66-.56-8.86-.54Z"/><polygon class="cls-2" points="567.25 284.72 577.16 287.52 568.79 315.02 574.99 316.92 583.31 289.88 593.25 292.67 577.66 343.9 567.65 340.64 572.4 325.27 566.22 323.43 561.56 338.76 551.58 335.49 556.17 320.44 553.38 319.6 556.12 311.15 558.79 311.99 567.25 284.72 567.25 284.72"/><path class="cls-2" d="M694.36,461c-6.27-7.4-5.13-17.22-.64-21.76,7.37-9.64,28.78-18.66,40.48-17.78,7.11.47,13.35,7.08,14.35,14.66l-8.33,4c-1.3-5-4.22-7.79-9.36-7.28-7,.95-19.29,6.11-26.41,11.73-4,3.13-5.45,7.87-1.61,12.14L694.36,461Z"/><path class="cls-2" d="M756.78,488.86l-1.84-10.37-40.11,6.58c-6,1.52-12,6.9-10.67,16.16,1,5.85,7,11.78,15.72,10.95l39.62-6.55-1.87-10.38-39.5,6.53c-5.67,1-8.31-5.29-.92-6.41l39.57-6.51Z"/><path class="cls-2" d="M742.11,527.55c3.14,0,6.67-.08,9.73,0-.56,2.51-1.44,4.37-4.81,4.33-3.19.31-5.21-2.12-4.92-4.28ZM716,528c5.87-.07,11.63,0,17.17-.15.14.83.43,1.53.6,2.39a16.15,16.15,0,0,1-8.89,3.47c-4.88.18-8.94-1.39-8.88-5.71Zm44.57-11.29c0,3.53-.06,7.1,0,10.62-.11,7.6-5.19,14.13-12.2,14.88-3,.15-6.6.52-10.25-3.52a20.18,20.18,0,0,1-14.64,5.71c-12.1-.68-15.86-8.39-16.31-16.78l-.27-9.94,53.72-1Z"/><path class="cls-2" d="M291.87,593.28c-.66-2.81-16.49-12.35-21.63-11.74-6.41.76-13,11.64-11.24,18.93,2,8.08,15.75,8.08,23.17,12.45,3.79-6.24,11.3-12.93,9.7-19.64Zm-24.15-29c2.94-.19.88,4.72,2.37,6,9.83,4.61,21.33,7.48,28.57,14.64-1.9,17-8.86,29.18-17.08,40.05-12.48-4-22.81-10.06-34.71-14.57,7.23-9.86,8.41-25.59,18.73-32.54-2-1.08-4.43-1.63-4.66-4.43-1.09-6.24,3.9-6.67,6.78-9.11Z"/><path class="cls-2" d="M314.6,608.4c3.54,4,9.58,5.58,14.68,8.07-.33,7.59,1.69,17.43-2.79,21-3.69-1.37-2.88-7.25-3.25-11.93-2.6-1.43-6.5-1.57-8.46-3.65-1.22-3.41-1.31-10.17-.18-13.53Z"/><path class="cls-3" d="M341.26,757.94l-2.17-.28c-6.16-.77-10.23-2.86-12.49-6.39-3.82-6-1.2-14.25,1.57-23,2.43-7.66,4.94-15.52,3.18-21.7-4.73.11-9.73,2.41-13.76,4.32-5.37,2.51-10.4,4.84-15.42,4.84-5.47,0-10-2.65-14-8.13-2.72-3.77-3.85-9-4.8-13.59-.4-1.88-.78-3.66-1.24-5.29a15.53,15.53,0,0,0-1.28-2.64c-1.2-2.19-2.7-4.94-1.94-7.87,1.08-4.29,5.15-6.17,8.75-7.82,2.89-1.31,5.63-2.57,6.53-4.74l5.51.57c.26,1.39,1.05,2.22,2.41,3.58a12.76,12.76,0,0,1,3.81,5.86l.22.81-.24.81c-1,3.15-3.43,5.56-5.77,7.87-4,4-5.44,5.87-3.68,8.76,4.56-.34,8.66-3.11,13-6,5.34-3.54,11.11-7.4,17.48-7.4a16,16,0,0,1,3,.28c6.63,1.31,10.15,9.31,12.25,14.11l.72,1.57c2.26,4.92,5.45,15.21,4.33,22-.65,3.75-3.24,7.47-5.74,11-2.29,3.24-4.65,6.62-4.7,8.91s1.43,4.68,2.86,7c1.93,3.14,4.1,6.69,2.51,10.53l-.86,2Z"/><path class="cls-2" d="M291.53,664.52c-.46,1.14-2.92,2.27-5.08,3.26-3.77,1.73-8.93,4.09-10.35,9.76-1,4,.85,7.43,2.23,9.94a15.09,15.09,0,0,1,1,2.09c.45,1.53.82,3.29,1.19,5.09,1,4.86,2.2,10.36,5.25,14.61,4.51,6.23,10,9.37,16.37,9.37,5.68,0,11-2.48,16.13-4.89,4.21-2,7.59-3.44,10.68-4,.44,5-1.58,11.44-3.56,17.65-2.86,9-5.81,18.32-1.25,25.44,2.74,4.29,7.49,6.81,14.54,7.7l4.36.55,1.71-4.05c2.16-5.2-.65-9.8-2.71-13.16-1.21-2-2.45-4-2.42-5.44s2.61-5.11,4.15-7.31c2.7-3.85,5.48-7.82,6.22-12.19,1.27-7.52-2-18.3-4.55-23.7l-.69-1.54c-2.33-5.3-6.22-14.17-14.35-15.79a18.48,18.48,0,0,0-3.52-.34c-7.23,0-13.38,4.12-18.81,7.76-3.19,2.14-6.31,4.23-9,5.22a27.06,27.06,0,0,1,3.07-3.33c2.46-2.46,5.26-5.24,6.47-9.07l.52-1.61-.44-1.65a15.6,15.6,0,0,0-4.56-7.11c-1.18-1.18-1.51-1.57-1.61-2.08l-11-1.17Zm5.34,2.21c.84,4.49,5.14,5.47,6.28,9.66-2.24,7-15.37,11.22-8.18,20.44a9.7,9.7,0,0,0,1.31.08c5,0,10-3.39,15.05-6.79s10.2-6.77,15.58-6.77a13.07,13.07,0,0,1,2.4.22c5.92,1.18,9.18,10.39,10.92,14.1,2.17,4.66,5.1,14.27,4.1,20.29-1.11,6.49-10.37,14.28-10.46,20.37-.11,6.51,7.55,11.74,5.57,16.46-27.12-3.43,1.86-33-6-51a17.73,17.73,0,0,0-1.79-.09c-5.24,0-10.32,2.3-15.23,4.58s-9.66,4.58-14.21,4.58c-4,0-7.92-1.79-11.67-7-3.37-4.7-4-12.44-5.6-18-.85-2.88-3.92-6.14-3.19-9,1.49-6,12.49-5.75,15.16-12.22Z"/><path class="cls-2" d="M751.47,625.27c-15.44-4.84-12.09-28.48-25.78-35-7.56,2-12.43,6.42-19,9.26-9.57,15.79,14.19,22.3,14.2,31.35.08,9.83-20,17.64-20.67,1,.31-3.64,5.71-2.44,7.63-4.6-3.87-6.88-11.24-14-8-25.44-.92-2.65-6.36-.72-7.7-2.9-1-3-2.3-5.79-2.43-9.69,13.57,2.37,25.58-14.14,36.66-11,4.67,1.34,12.84,18.57,15.62,22.32,5.48,7.52,12.84,15.76,9.53,24.71Z"/><path class="cls-3" d="M719.35,719.07h-.07l-.58-.06a5.24,5.24,0,0,1-4.24-2.57c-2.09-3.81,1-10.29,3-14.59l.64-1.38,2.41-5.13c1.81-3.76,3.32-6.88,4.65-10.44a50.07,50.07,0,0,0-9-4.67c-6.87-3.07-13.94-6.22-15.78-12.25-1-3.48-.19-7.37,2.64-11.83l.41-.65.74-.06,1.61,0c3.13.88,4.45,2.77,5.73,4.57a14.81,14.81,0,0,0,4.38,4.59,75.75,75.75,0,0,0,11.31,5.26c7.36,3,13.72,5.54,14,9.94.17,3.05-2.67,6.11-9,9.56-.17.65-.91,4.22-1.72,8-2,9.67-4.5,21.72-11.15,21.72Z"/><path class="cls-2" d="M706.24,654h-2l-1.55,0-.84,1.31c-3,4.82-4,9.19-2.8,13,2,6.67,9.77,10.12,16.58,13.16a62.22,62.22,0,0,1,7.8,3.88c-1.18,3-2.5,5.74-4.08,9.06-.78,1.64-1.62,3.39-2.53,5.35l-.63,1.35c-2.74,5.81-5.24,11.82-3,15.94a6.6,6.6,0,0,0,5.32,3.31l.18,0,.66,0c7.81,0,10.34-12.15,12.58-22.87a71,71,0,0,1,1.79-7.48c4.46-2.52,9.18-5.94,8.91-10.44-.32-5.33-7.08-8.05-14.9-11.21a72.92,72.92,0,0,1-11-5.14,13.57,13.57,0,0,1-4-4.19c-1.35-1.93-2.87-4.12-6.07-5.06l-.39-.11Zm-.42,2.89c4.24,1.24,4.25,5.68,9.33,8.91,12,7.61,37.8,10.49,16.37,22.28-2.63,4.23-4.16,29.53-12.17,29.53a2.77,2.77,0,0,1-.49,0c-7.58-.91-1.37-12.27.54-16.52,3.13-6.76,5.48-11.1,7.45-16.64-8.6-7.39-33.86-9.64-22.59-27.51Z"/><path class="cls-3" d="M703,676.49c-2.69,11.12-3.19,35.57-18.85,25,8.65-6,5.69-23.25,18.85-25Z"/><path class="cls-3" d="M377.09,714.53c-3.06,12.74-3.62,40.48-21.45,28.53,9.88-6.9,6.49-26.46,21.45-28.53Z"/><path class="cls-3" d="M631.8,684.93c1.78,2.56,4.12,4.44,5.47,7.42-1.19,6.14-13.26,10.09-5.91,17.32,10.83-.52,16.07-12.16,26.69-10.83,6.37.84,15.34,17.6,13.4,28.37-.91,5.1-7.45,8.91-8.23,14.41-1,7,3.81,10.17,4.79,15.69-24.41-1.34,2.86-29.42-6.67-42.78-10.9-.3-14.77,9.49-23.67,9.36-12.19-.15-14.27-16.85-18-29,2.81-4.51,10-4.83,12.14-9.91Z"/><path class="cls-3" d="M410.74,725.42c-4.95,11.33-3.47,28.81-14.87,34-9.39-10.68,7.5-27.43,10.22-38.43-10.64-7.24-39.48-11.52-25.71-31.21h2.29c2.2,13.22,36.94,14.68,37.16,26.55.11,5.2-4.14,7.24-9.09,9.14Z"/><path class="cls-3" d="M553.15,768.6c-5-6.62-18.41-3.68-26.14-8.67-6.46,5.24-11,12.27-11.22,23.44,7.6,6.53,18.55,9.77,28.55,13.9,4.43-6.83,15.27-20.18,8.81-28.67Zm-23.43-34.26c.69,2.18.69,2.34,0,4.52,6.72,12.09,40.5,10.14,34.88,29.56-4,14-15.19,30.17-19.3,46.12-15.53-5.46-28.31-13.66-43.21-19.72,7.85-11.79,9.09-29.9,19.39-39.29-.68-7.43-2.79-22.44,8.19-21.19Z"/><path class="cls-3" d="M621.48,771.45c-.62,7.31-.62,15.27-2.83,21.06-4.77-.72-4.11-8.55-3.2-12.71-2.29-5.19-8.66-4.31-10.09-8.88-4.94-15.39,12.63-6.48,16.12.53Z"/><path class="cls-3" d="M458.51,800.66c-10-4.67-8.73-20.65-17.22-26.81-6.3.64-9.44,4.33-14.49,6.17-6.11,10.63,9.8,15.59,10.27,22.43.34,4.86-4.43,9.31-12.15,9.92a17.31,17.31,0,0,1-2.41-8.25c.28-2.69,3.77-2.37,5.32-3.82-3.63-4.44-7.16-9-6.36-18-1.31-4-7.6-3-6.28-9.64,11.33,2.61,14.58-8.35,23.68-7.86,6.81.43,10.29,11.3,13.25,16.36,3.8,6.5,9.35,12.95,6.39,19.47Z"/><path class="cls-6" d="M59.42,15.51s4-6,4.93-5.07C76.61,22.73,169.82,31.06,169.82,31.06v66l95.61.76V42.45l94.48,5.69V97.45H457V50h92.59V97.84h97.13V47.75s89.53-6.45,93.34-6.45V97.84h97.11V29.92s89.92-8.73,96-19.35l4.17,4.18s-14,43.25-8.73,71.32,8.16,38.52,13.84,49.71,10.25,18.78,10.25,18.78-22,17.65-29.59,29.79-22.56,36.41-29.41,59.75-11.75,41-15,62.8-7.21,54.06-7.21,85.93,2.27,74.94,6.83,93.53,13.48,50.08,16.69,58.24,23,48.38,36,63.74,15.19,16.71,19.37,20.86S964.87,640,964.87,640s-14.4,24.66-30,43.07-28.26,33.57-34.72,40-37.17,36.8-45.33,43.26-42.87,33-51.78,38.7S764.35,829.92,752,835.42c-11.95,5.32-60.43,29.73-73.59,35.72l-1.15.51c-11.19,4.93-42.68,21.44-50.84,25s-34.9,18.78-43.63,23.34-38.13,22.77-45.91,30.53S521,964.43,515.84,971.24s-10.42,18.41-10.42,18.41h-6.07s-5.9-16.88-18.61-27.7-30.92-24.47-45.14-32.63S371.27,894,354.21,886.27s-53.88-25.63-53.88-25.63-46.29-22.19-53.5-25.8-51.21-30.54-56.34-33.77-48.65-35.74-62.23-49.32-40-39.07-49.5-51.22-29-36.23-33.2-42.87-10.43-17.07-10.43-17.07,26.17-18.78,40.4-41.18S104,549,110.06,528.46s12.9-49.12,15-73.21,2.66-77.79,1.71-93.91S119,285.27,109.48,256.42s-18.39-52.16-31.67-69.8-18.22-21.44-21.25-24.47-9.67-6.82-9.67-6.82a115.56,115.56,0,0,0,10-19C61.3,125.73,71.17,106,71.17,84.94s.39-32.07-2.46-45.53a83.57,83.57,0,0,0-9.29-23.9Z"/><polygon class="cls-2" points="245.48 834.12 354.21 883.04 245.48 834.12 245.48 834.12"/><path class="cls-7" d="M82.39,634.88A15.89,15.89,0,1,1,66.5,650.77a15.88,15.88,0,0,1,15.89-15.89Zm837,0a15.89,15.89,0,1,1-15.89,15.89,15.88,15.88,0,0,1,15.89-15.89ZM502.94,926.82a15.89,15.89,0,1,1-15.88,15.88,15.89,15.89,0,0,1,15.88-15.88Z"/></g></svg>